# xmcd
#
# Track frame offsets: 
#        150
#        14100
#        18757
#        42130
#        48160
#        65124
#        76850
#        97971
#        104541
#        128412
#        133064
#        146703
#        151917
#        166254
#        174082
#        191199
#        197530
#        212540
#        216301
#        223006
#        233354
#        237064
#        250287
#        252115
#
# Disc length: 3565 seconds
#
# Revision: 0
# Processed by: cddbd v1.5.2PL0 Copyright (c) Steve Scherf et al.
# Submitted via: ExactAudioCopy v0.99pb5
#
DISCID=430deb18
DTITLE=D.Barrett, J. Filisko, D. Gruenling, K. Pollard - History of th
DTITLE=e Blues Harmonica Concert CD1 of 2
DYEAR=2010
DGENRE=Blues
TTITLE0=Concert Info by David Barrett
TTITLE1=Train Imitation Medley Intro - Joe Filisko
TTITLE2=Train Imitation Medley - Joe Filisko
TTITLE3=1st Position Medley Intro - Joe Filisko
TTITLE4=1st Position Medley - Joe Filisko
TTITLE5=Lost John-Fox Chase Medley Intro - Joe Filisko
TTITLE6=Lost John-Fox Chase Medley - Joe Filisko
TTITLE7=Sonny Terry Medley Intro- Joe Filisko
TTITLE8=Sonny Terry Medley - Joe Filisko
TTITLE9=Mean Low Blues Intro - Joe Filisko
TTITLE10=Mean Low Blues - Joe Filisko
TTITLE11=Stove Pipe Blues Intro - Joe Filisko
TTITLE12=Stove Pipe Blues - Joe Filisko
TTITLE13=Sugar Mama Intro - Joe Filisko
TTITLE14=Sugar Mama - Joe Filisko
TTITLE15=Bye Bye Bird Intro- Joe Filisko
TTITLE16=Bye Bye Bird - Joe Filisko
TTITLE17=Intro David Barrett
TTITLE18=Eva's Shuffle Intro - David Barrett
TTITLE19=Eva's Shuffle - David Barrett
TTITLE20=Juke Intro - David Barrett
TTITLE21=Juke - David Barrett
TTITLE22=Blue Light Intro - Joe Filisko
TTITLE23=Blue Light - Joe Filisko
EXTD=
EXTT0=
EXTT1=
EXTT2=
EXTT3=
EXTT4=
EXTT5=
EXTT6=
EXTT7=
EXTT8=
EXTT9=
EXTT10=
EXTT11=
EXTT12=
EXTT13=
EXTT14=
EXTT15=
EXTT16=
EXTT17=
EXTT18=
EXTT19=
EXTT20=
EXTT21=
EXTT22=
EXTT23=
PLAYORDER=
